<svg width="20" height="20" viewBox="0 0 20 20" fill="none" xmlns="http://www.w3.org/2000/svg">
<path d="M17.7778 2.22223H2.2222C1.92751 2.22223 1.64489 2.33929 1.43652 2.54767C1.22815 2.75604 1.11108 3.03866 1.11108 3.33334V16.6667C1.11108 16.9614 1.22815 17.244 1.43652 17.4523C1.64489 17.6607 1.92751 17.7778 2.2222 17.7778H17.7778C18.0724 17.7778 18.3551 17.6607 18.5634 17.4523C18.7718 17.244 18.8889 16.9614 18.8889 16.6667V3.33334C18.8889 3.03866 18.7718 2.75604 18.5634 2.54767C18.3551 2.33929 18.0724 2.22223 17.7778 2.22223ZM2.2222 16.6667V3.33334H17.7778V16.6667H2.2222Z" fill="#6E6893"/>
<path d="M4.95561 7.77779C5.28524 7.77779 5.60748 7.68004 5.88156 7.49691C6.15564 7.31377 6.36926 7.05347 6.49541 6.74893C6.62155 6.44439 6.65456 6.10928 6.59025 5.78598C6.52594 5.46267 6.36721 5.1657 6.13412 4.93261C5.90103 4.69953 5.60406 4.54079 5.28076 4.47648C4.95746 4.41217 4.62235 4.44518 4.3178 4.57133C4.01326 4.69747 3.75296 4.91109 3.56982 5.18518C3.38669 5.45926 3.28894 5.78149 3.28894 6.11113C3.28894 6.55315 3.46454 6.97708 3.7771 7.28964C4.08966 7.6022 4.51358 7.77779 4.95561 7.77779ZM4.95561 5.22224C5.13165 5.22114 5.30405 5.27233 5.45095 5.36933C5.59786 5.46633 5.71265 5.60477 5.78078 5.7671C5.84891 5.92942 5.86731 6.10832 5.83364 6.28111C5.79998 6.4539 5.71576 6.6128 5.59167 6.73767C5.46758 6.86254 5.30921 6.94776 5.13663 6.98251C4.96405 7.01726 4.78504 6.99998 4.6223 6.93287C4.45955 6.86576 4.32039 6.75183 4.22247 6.60554C4.12455 6.45924 4.07228 6.28717 4.07227 6.11113C4.07373 5.8773 4.16726 5.65347 4.33261 5.48812C4.49795 5.32278 4.72178 5.22925 4.95561 5.22779V5.22224Z" fill="#6E6893"/>
<path d="M12.6556 8.53887L9.65561 11.5389L7.43338 9.31665C7.32929 9.21318 7.18849 9.1551 7.04172 9.1551C6.89495 9.1551 6.75414 9.21318 6.65005 9.31665L3.28894 12.7222V14.2944L7.06116 10.5222L8.88894 12.3222L6.80561 14.4055H8.33338L13.0278 9.71109L16.6667 13.3333V11.7666L13.4389 8.53887C13.3349 8.4354 13.194 8.37732 13.0473 8.37732C12.9005 8.37732 12.7597 8.4354 12.6556 8.53887Z" fill="#6E6893"/>
</svg>
