<svg xmlns="http://www.w3.org/2000/svg" width="20" height="20" viewBox="0 0 20 20" fill="none">
  <path d="M16.6667 7.5L10.8333 2.5C10.3333 2.08333 9.66667 2.08333 9.16667 2.5L3.33334 7.5C3.08334 7.75 2.91667 8.08333 2.91667 8.41667V15.8333C2.91667 16.75 3.66667 17.5 4.58334 17.5H15.4167C16.3333 17.5 17.0833 16.75 17.0833 15.8333V8.41667C17.0833 8.08333 16.9167 7.75 16.6667 7.5ZM10 15.8333C8.58334 15.8333 7.5 14.75 7.5 13.3333C7.5 11.9167 8.58334 10.8333 10 10.8333C11.4167 10.8333 12.5 11.9167 12.5 13.3333C12.5 14.75 11.4167 15.8333 10 15.8333ZM15 9.16667C15 9.58333 14.75 9.83333 14.3333 9.83333H5.66667C5.25 9.83333 5 9.58333 5 9.16667V7.5C5 7.08333 5.25 6.83333 5.66667 6.83333H14.3333C14.75 6.83333 15 7.08333 15 7.5V9.16667Z" fill="#1e2226"/>
</svg> 