<svg xmlns="http://www.w3.org/2000/svg" width="20" height="20" viewBox="0 0 20 20" fill="none">
  <path d="M16.25 10.8333C16.25 10.5833 16.25 10.3333 16.25 10.0833C16.25 9.83333 16.1667 9.58333 16.0833 9.33333L17.5833 8.16667C17.75 8.08333 17.8333 7.83333 17.75 7.66667L16.0833 4.66667C16 4.5 15.75 4.41667 15.5833 4.5L13.8333 5.25C13.4167 4.91667 13 4.66667 12.5 4.5L12.1667 2.66667C12.1667 2.5 12 2.33333 11.8333 2.33333H8.5C8.33333 2.33333 8.16667 2.5 8.16667 2.66667L7.83333 4.5C7.33333 4.66667 6.91667 4.91667 6.5 5.25L4.75 4.5C4.58333 4.41667 4.33333 4.5 4.25 4.66667L2.58333 7.66667C2.5 7.83333 2.58333 8.08333 2.75 8.16667L4.25 9.33333C4.16667 9.58333 4.08333 9.83333 4.08333 10.0833C4.08333 10.3333 4.08333 10.5833 4.08333 10.8333C4.08333 11.0833 4.16667 11.3333 4.25 11.5833L2.75 12.75C2.58333 12.8333 2.5 13.0833 2.58333 13.25L4.25 16.25C4.33333 16.4167 4.58333 16.5 4.75 16.4167L6.5 15.6667C6.91667 16 7.33333 16.25 7.83333 16.4167L8.16667 18.25C8.16667 18.4167 8.33333 18.5833 8.5 18.5833H11.8333C12 18.5833 12.1667 18.4167 12.1667 18.25L12.5 16.4167C13 16.25 13.4167 16 13.8333 15.6667L15.5833 16.4167C15.75 16.5 16 16.4167 16.0833 16.25L17.75 13.25C17.8333 13.0833 17.75 12.8333 17.5833 12.75L16.0833 11.5833C16.1667 11.3333 16.25 11.0833 16.25 10.8333ZM10.1667 13.75C8.58333 13.75 7.25 12.4167 7.25 10.8333C7.25 9.25 8.58333 7.91667 10.1667 7.91667C11.75 7.91667 13.0833 9.25 13.0833 10.8333C13.0833 12.4167 11.75 13.75 10.1667 13.75Z" fill="#1e2226"/>
</svg> 