<svg xmlns="http://www.w3.org/2000/svg" width="20" height="20" viewBox="0 0 20 20" fill="none">
  <path d="M17.5 9.16667H16.6667V5.83333C16.6667 5.375 16.2917 5 15.8333 5H4.16667C3.70833 5 3.33333 5.375 3.33333 5.83333V9.16667H2.5C2.04167 9.16667 1.66667 9.54167 1.66667 10C1.66667 10.4583 2.04167 10.8333 2.5 10.8333H3.33333V14.1667C3.33333 14.625 3.70833 15 4.16667 15H15.8333C16.2917 15 16.6667 14.625 16.6667 14.1667V10.8333H17.5C17.9583 10.8333 18.3333 10.4583 18.3333 10C18.3333 9.54167 17.9583 9.16667 17.5 9.16667ZM10 13.3333H5V10.8333H10V13.3333ZM10 9.16667H5V6.66667H10V9.16667ZM15 13.3333H11.6667V10.8333H15V13.3333ZM15 9.16667H11.6667V6.66667H15V9.16667Z" fill="#1e2226"/>
</svg> 