<svg width="24" height="24" fill="none" xmlns="http://www.w3.org/2000/svg"><path d="M1.114 3.92c.914-3.894 6.87-3.894 7.772 0 .538 2.286-.937 4.221-2.217 5.426-.937.878-2.412.866-3.35 0C2.052 8.14.577 6.206 1.115 3.92zm13.999 13c.91-3.894 6.865-3.894 7.774 0 .534 2.286-.932 4.221-2.216 5.426-.932.878-2.41.866-3.342 0-1.284-1.204-2.75-3.14-2.216-5.425z" stroke="#FFDB63" stroke-width="1.5"/><path d="M11.995 4h2.862c1.975 0 2.894 2.617 1.41 4.011L7.733 16c-1.484 1.383-.566 4 1.399 4h2.862" stroke="#FFDB63" stroke-width="1.5" stroke-linecap="round" stroke-linejoin="round"/><path d="M4.991 4.5h.018m13.982 14h.018" stroke="#FFDB63" stroke-width="2" stroke-linecap="round" stroke-linejoin="round"/></svg>