<svg width="41" height="6" viewBox="0 0 41 6" fill="none" xmlns="http://www.w3.org/2000/svg">
<path d="M40.5 3C40.5 4.31118 39.2319 5.5 37.5 5.5C35.7681 5.5 34.5 4.31118 34.5 3C34.5 1.68882 35.7681 0.5 37.5 0.5C39.2319 0.5 40.5 1.68882 40.5 3Z" stroke="#0499B7"/>
<path d="M23.5 3C23.5 4.31118 22.2319 5.5 20.5 5.5C18.7681 5.5 17.5 4.31118 17.5 3C17.5 1.68882 18.7681 0.5 20.5 0.5C22.2319 0.5 23.5 1.68882 23.5 3Z" stroke="#0499B7"/>
<path d="M6.5 3C6.5 4.31118 5.23194 5.5 3.5 5.5C1.76806 5.5 0.5 4.31118 0.5 3C0.5 1.68882 1.76806 0.5 3.5 0.5C5.23194 0.5 6.5 1.68882 6.5 3Z" stroke="#0499B7"/>
</svg>
