<svg width="98" height="115" fill="none" xmlns="http://www.w3.org/2000/svg"><path d="M27.138 12.827c9.452-5.545 14.177-8.318 19.32-8.866a24 24 0 015.084 0c5.143.548 9.868 3.32 19.32 8.866l5.8 3.403c9.235 5.419 13.853 8.128 16.814 12.24a24.005 24.005 0 012.476 4.324C98 37.428 98 42.782 98 53.49v8.02c0 10.708 0 16.062-2.048 20.696a24.005 24.005 0 01-2.476 4.325c-2.961 4.11-7.579 6.82-16.814 12.239l-5.8 3.403c-9.452 5.545-14.177 8.318-19.32 8.866a24 24 0 01-5.084 0c-5.143-.548-9.868-3.321-19.32-8.866l-5.8-3.403c-9.235-5.42-13.853-8.128-16.814-12.24a24.001 24.001 0 01-2.476-4.324C0 77.572 0 72.218 0 61.51v-8.02c0-10.708 0-16.062 2.048-20.696a24.001 24.001 0 012.476-4.325c2.961-4.11 7.579-6.82 16.814-12.239l5.8-3.403z" fill="url(#paint0_linear_1907_1890)"/><g clip-path="url(#clip0_1907_1890)"><path d="M18.879 42.671h2.818v-1.879h-2.818v-1.878h4.571v-1.879h-4.57v-2.58l13.651-3.302V51.25h1.879V31.152l2.824.684.442-1.826-4.205-1.018L17 32.977v25.75h1.879V42.67zm60.242 39.95l-14.59-3.53L49 82.847l-7.748-1.875-.442 1.826L49 84.78l15.53-3.757L81 85.008V38.726h-1.879V82.62zm-14.59-53.629L49 32.75l-9.499-2.299-.442 1.827 9.002 2.177v14.541h1.878v-14.54l14.591-3.53 14.591 3.53v2.391H81v-3.87l-16.47-3.985zM18.878 82.62V60.605H17v24.403l16.47-3.985 5.514 1.334.442-1.826-5.956-1.44-14.591 3.53z" fill="url(#paint1_linear_1907_1890)"/><path d="M29.462 57.951c-3.971 0-7.202 3.23-7.202 7.202 0 1.923.75 3.732 2.11 5.092l5.092 5.092 5.092-5.092a7.155 7.155 0 002.11-5.092c0-3.971-3.231-7.202-7.202-7.202zm3.764 10.965l-3.764 3.764-3.764-3.764a5.288 5.288 0 01-1.56-3.763 5.329 5.329 0 015.324-5.323 5.329 5.329 0 015.323 5.323 5.288 5.288 0 01-1.56 3.763zm32.056-34.01a3.45 3.45 0 00-3.402 2.905 3.423 3.423 0 00-1.608-.4 3.448 3.448 0 00-3.444 3.444v2.505a3.45 3.45 0 002.505 3.313v2.26H57.14v1.88h16.282v-1.88H71.23v-2.26a3.45 3.45 0 002.505-3.313v-1.252c0-1.9-1.545-3.445-3.444-3.445-.545 0-1.082.13-1.566.378v-.69c0-1.9-1.545-3.445-3.444-3.445zm-6.575 8.454v-2.505c0-.863.702-1.566 1.565-1.566s1.566.703 1.566 1.566v2.505c0 .863-.703 1.566-1.566 1.566a1.567 1.567 0 01-1.566-1.566zm5.636 5.573H61.21v-2.26a3.44 3.44 0 001.566-.953c.426.453.967.782 1.566.953v2.26zm-.627-5.573v-5.01a1.567 1.567 0 013.131 0v5.01c0 .863-.702 1.566-1.565 1.566a1.567 1.567 0 01-1.566-1.566zm5.636 5.573h-3.13v-2.26c.597-.17 1.138-.5 1.565-.953a3.45 3.45 0 001.565.953v2.26zm.94-8.391c.863 0 1.565.702 1.565 1.566v1.252c0 .863-.702 1.566-1.565 1.566a1.567 1.567 0 01-1.566-1.566v-1.252c0-.864.702-1.566 1.566-1.566zm-3.257 33.315h-25.55v1.879h25.55a5.705 5.705 0 005.699-5.699 5.705 5.705 0 00-5.699-5.699H49.501a3.072 3.072 0 01-3.069-3.068 3.072 3.072 0 013.069-3.069h13.276c1.9 0 3.444-1.544 3.444-3.444v-2.004h-1.879v2.004c0 .864-.702 1.566-1.565 1.566H49.5a4.953 4.953 0 00-4.947 4.947 4.953 4.953 0 004.947 4.947h17.534a3.824 3.824 0 013.82 3.82 3.824 3.824 0 01-3.82 3.82zm-29.307 0h1.879v1.879h-1.879v-1.879z" fill="url(#paint2_linear_1907_1890)"/><path d="M29.462 62.084a3.072 3.072 0 00-3.069 3.069 3.072 3.072 0 003.069 3.068 3.072 3.072 0 003.068-3.068 3.072 3.072 0 00-3.068-3.069zm0 4.258a1.19 1.19 0 010-2.38 1.19 1.19 0 010 2.38zM32.53 53.13h1.879v1.879H32.53V53.13zm15.53-2.254h1.88v1.878h-1.88v-1.878zM33.97 73.857h1.88v1.879h-1.88v-1.879zm-8.64-36.822h1.878v1.879H25.33v-1.879z" fill="url(#paint3_linear_1907_1890)"/></g><defs><linearGradient id="paint0_linear_1907_1890" x1="11.343" y1="129.72" x2="77.098" y2="19.191" gradientUnits="userSpaceOnUse"><stop stop-color="#EFF3F6" stop-opacity=".8"/><stop offset="1" stop-color="#EFF3F6" stop-opacity="0"/></linearGradient><linearGradient id="paint1_linear_1907_1890" x1="57.5" y1="49.5" x2="22" y2="95" gradientUnits="userSpaceOnUse"><stop stop-color="#307EBC"/><stop offset="1" stop-color="#52C788"/></linearGradient><linearGradient id="paint2_linear_1907_1890" x1="57.5" y1="49.5" x2="22" y2="95" gradientUnits="userSpaceOnUse"><stop stop-color="#307EBC"/><stop offset="1" stop-color="#52C788"/></linearGradient><linearGradient id="paint3_linear_1907_1890" x1="57.5" y1="49.5" x2="22" y2="95" gradientUnits="userSpaceOnUse"><stop stop-color="#307EBC"/><stop offset="1" stop-color="#52C788"/></linearGradient><clipPath id="clip0_1907_1890"><path fill="#fff" transform="translate(17 25)" d="M0 0h64v64H0z"/></clipPath></defs></svg>