<svg width="98" height="115" fill="none" xmlns="http://www.w3.org/2000/svg"><path d="M27.138 12.827c9.452-5.545 14.177-8.318 19.32-8.866a24 24 0 015.084 0c5.143.548 9.868 3.32 19.32 8.866l5.8 3.403c9.235 5.419 13.853 8.128 16.814 12.24a24.005 24.005 0 012.476 4.324C98 37.428 98 42.782 98 53.49v8.02c0 10.708 0 16.062-2.048 20.696a24.005 24.005 0 01-2.476 4.325c-2.961 4.11-7.579 6.82-16.814 12.239l-5.8 3.403c-9.452 5.545-14.177 8.318-19.32 8.866a24 24 0 01-5.084 0c-5.143-.548-9.868-3.321-19.32-8.866l-5.8-3.403c-9.235-5.42-13.853-8.128-16.814-12.24a24.001 24.001 0 01-2.476-4.324C0 77.572 0 72.218 0 61.51v-8.02c0-10.708 0-16.062 2.048-20.696a24.001 24.001 0 012.476-4.325c2.961-4.11 7.579-6.82 16.814-12.239l5.8-3.403z" fill="url(#paint0_linear_1907_3452)"/><path d="M44.83 61.088l1.836-.794.794 1.836-1.837.794-.793-1.836zm1.616 3.663l1.837-.796.72 1.66-1.837.797-.72-1.661zm-3.207-7.334l1.837-.794.794 1.836-1.837.794-.794-1.836zM58 42v2h4.762l3.326 7.419 1.824-.818L64.057 42H58zm-33-2c3.859 0 7-3.141 7-7s-3.141-7-7-7h-1v1.756l.251.283c.483.547.749 1.243.749 1.961 0 1.654-1.346 3-3 3a2.964 2.964 0 01-1.961-.749L19.756 32H18v1c0 3.859 3.141 7 7 7zm-3-5c2.757 0 5-2.243 5-5 0-.586-.104-1.162-.305-1.704A5.01 5.01 0 0130 33c0 2.757-2.243 5-5 5a5.01 5.01 0 01-4.704-3.305A4.899 4.899 0 0022 35z" fill="url(#paint1_linear_1907_3452)"/><path d="M77.001 46.107l.002-.107c0-.797-.192-1.562-.536-2.245C78.505 43.124 80 41.243 80 39a4.946 4.946 0 00-1.298-3.336C78.9 35.124 79 34.566 79 34c0-2.757-2.243-5-5-5-.569 0-1.124.107-1.653.292A6.002 6.002 0 0067 26a5.96 5.96 0 00-3.672 1.277A4.996 4.996 0 0060 26a4.98 4.98 0 00-4.65 3.209A4.902 4.902 0 0054 29c-2.757 0-5 2.243-5 5 0 .572.105 1.138.295 1.673A4.968 4.968 0 0048.101 38H31.353L18 67.786V70h34.703c-.416.894-.703 1.89-.703 3.049 0 1.545.507 2.955 1.387 4.15l-9.094 9.094 1.414 1.414 9.057-9.057a9.388 9.388 0 001.671 1.089l-4.278 6.724 1.688 1.074 4.486-7.05c.856.252 1.737.412 2.627.476L61 88.006l2-.012-.043-7.024c1.04-.048 2.07-.208 3.075-.477l5.159 7.095 1.617-1.176-4.84-6.656c.513-.258.996-.57 1.442-.932l8.883 8.883 1.414-1.414-8.945-8.945C71.566 76.164 72 74.723 72 73.049c0-1.038-.233-2.055-.59-3.049H80v-2.214l-7.551-16.845c2.526-.291 4.522-2.349 4.552-4.834zM53 36v-2c-.692 0-1.351.142-1.951.397-.018-.132-.049-.261-.049-.397 0-1.654 1.346-3 3-3s3 1.346 3 3h2c0-1.567-.739-2.95-1.871-3.868a2.993 2.993 0 015.321-.853l.729 1.033.837-.947C64.795 28.485 65.854 28 67 28c2.206 0 4 1.794 4 4s-1.794 4-4 4v2c3.309 0 6-2.691 6-6 0-.272-.024-.537-.06-.799.338-.131.697-.2 1.06-.201 1.654 0 3 1.346 3 3 0 .482-.128.961-.379 1.422l-.399.732.649.524A2.981 2.981 0 0178 39c0 1.654-1.346 3-3 3v.003a4.97 4.97 0 00-1.311-.711l-.674 1.883c1.188.426 1.987 1.562 1.986 2.87-.02 1.63-1.434 2.955-3.152 2.955h-.27l-4.931-11H50.184A2.996 2.996 0 0153 36zM40.451 65.578A32.204 32.204 0 0133 45v-1.176L43.476 68h-1.008l-2.017-2.422zM39.865 68h-15.73l.951-1.141A34.196 34.196 0 0032 53.155c1.233 5 3.58 9.702 6.914 13.703L39.865 68zM31 43.675V45a32.21 32.21 0 01-7.451 20.579L21.532 68h-1.436L31 43.675zm23 29.374c0-1.816.982-3.158 2.021-4.579.686-.935 1.387-1.893 1.741-2.978.622.365 1.238.893 1.238 1.508v1h2v-1c0-.721-.253-1.332-.626-1.841.796-1.911 2.691-3.133 3.893-3.744.431 1.236 1.334 2.579 2.335 4.068C68.194 67.852 70 70.536 70 73.049c0 2.852-1.532 4.363-3.409 5.15a4.663 4.663 0 00.409-1.9 4.725 4.725 0 00-1.03-2.938L62 68.399l-3.969 4.962A4.716 4.716 0 0057 76.299c0 .579.119 1.127.312 1.64-2.03-1.057-3.312-2.816-3.312-4.89zM61.951 79c-.13 0-.256-.009-.384-.014A2.697 2.697 0 0159 76.299c0-.611.21-1.211.593-1.688L62 71.601l2.408 3.011c.382.476.592 1.076.592 1.687a2.7 2.7 0 01-2.631 2.694c-.142.003-.284.007-.418.007zm8.563-11c-.673-1.267-1.481-2.485-2.253-3.633C67.149 62.714 66 61.005 66 60v-1.398l-1.323.452c-.187.063-4.128 1.444-5.868 4.74a7.733 7.733 0 00-1.507-.698L56 62.683v1.366c0 1.065-.737 2.073-1.592 3.24-.169.231-.341.469-.512.711h-8.239L33.524 40h31.829l12.552 28h-7.391z" fill="url(#paint2_linear_1907_3452)"/><path d="M54 42h2v2h-2v-2zm-4 0h2v2h-2v-2z" fill="url(#paint3_linear_1907_3452)"/><defs><linearGradient id="paint0_linear_1907_3452" x1="11.343" y1="129.72" x2="77.098" y2="19.191" gradientUnits="userSpaceOnUse"><stop stop-color="#EFF3F6" stop-opacity=".8"/><stop offset="1" stop-color="#EFF3F6" stop-opacity="0"/></linearGradient><linearGradient id="paint1_linear_1907_3452" x1="57.234" y1="48.701" x2="16.987" y2="93.846" gradientUnits="userSpaceOnUse"><stop stop-color="#307EBC"/><stop offset="1" stop-color="#52C788"/></linearGradient><linearGradient id="paint2_linear_1907_3452" x1="57.234" y1="48.701" x2="16.987" y2="93.846" gradientUnits="userSpaceOnUse"><stop stop-color="#307EBC"/><stop offset="1" stop-color="#52C788"/></linearGradient><linearGradient id="paint3_linear_1907_3452" x1="57.234" y1="48.701" x2="16.987" y2="93.846" gradientUnits="userSpaceOnUse"><stop stop-color="#307EBC"/><stop offset="1" stop-color="#52C788"/></linearGradient></defs></svg>