<svg width="98" height="115" fill="none" xmlns="http://www.w3.org/2000/svg"><path d="M27.138 12.827c9.452-5.545 14.177-8.318 19.32-8.866a24 24 0 015.084 0c5.143.548 9.868 3.32 19.32 8.866l5.8 3.403c9.235 5.419 13.853 8.128 16.814 12.24a24.005 24.005 0 012.476 4.324C98 37.428 98 42.782 98 53.49v8.02c0 10.708 0 16.062-2.048 20.696a24.005 24.005 0 01-2.476 4.325c-2.961 4.11-7.579 6.82-16.814 12.239l-5.8 3.403c-9.452 5.545-14.177 8.318-19.32 8.866a24 24 0 01-5.084 0c-5.143-.548-9.868-3.321-19.32-8.866l-5.8-3.403c-9.235-5.42-13.853-8.128-16.814-12.24a24.001 24.001 0 01-2.476-4.324C0 77.572 0 72.218 0 61.51v-8.02c0-10.708 0-16.062 2.048-20.696a24.001 24.001 0 012.476-4.325c2.961-4.11 7.579-6.82 16.814-12.239l5.8-3.403z" fill="url(#paint0_linear_1907_1440)"/><path d="M81 33.768v31.629a1.006 1.006 0 01-1 1.003.998.998 0 01-1-1.003V33.768a2.758 2.758 0 00-2.75-2.76h-54.5a2.758 2.758 0 00-2.75 2.76v34.13a2.758 2.758 0 002.75 2.76h5.21a.998.998 0 011 .973l.294 9.803 1.854-2.103a.999.999 0 011.695.992c-.043.124-.11.24-.197.338l-3.526 4a1 1 0 01-1.748-.634l-.343-11.362H21.75c-2.62 0-4.75-2.139-4.75-4.768V33.768C17 31.14 19.13 29 21.75 29h54.5c2.62 0 4.75 2.139 4.75 4.768zM30.277 50.833c0-2.858 2.316-5.183 5.163-5.183 2.848 0 5.164 2.325 5.164 5.183 0 2.858-2.316 5.183-5.163 5.183-2.848 0-5.164-2.325-5.164-5.183zm2 0c0 1.75 1.42 3.175 3.163 3.175a3.173 3.173 0 003.164-3.175 3.173 3.173 0 00-3.163-3.176 3.173 3.173 0 00-3.164 3.176zm11.56 0c0-2.858 2.316-5.183 5.163-5.183 2.847 0 5.163 2.325 5.163 5.183 0 2.858-2.316 5.183-5.163 5.183-2.847 0-5.163-2.325-5.163-5.183zm2 0A3.173 3.173 0 0049 54.008a3.173 3.173 0 003.163-3.175A3.173 3.173 0 0049 47.657a3.173 3.173 0 00-3.163 3.176zm11.56 0c0-2.858 2.315-5.183 5.163-5.183 2.847 0 5.163 2.325 5.163 5.183 0 2.858-2.316 5.183-5.163 5.183-2.848 0-5.164-2.325-5.164-5.183zm2 0a3.172 3.172 0 003.163 3.175 3.173 3.173 0 003.163-3.175 3.173 3.173 0 00-3.163-3.176 3.173 3.173 0 00-3.164 3.176zM45.968 68.11a1.008 1.008 0 01-.29 1.064l-3.244 2.869.944 4.236a1.008 1.008 0 01-.388 1.031.997.997 0 01-1.097.052l-3.72-2.21-3.722 2.21a.997.997 0 01-1.445-.51 1.006 1.006 0 01-.04-.573l.944-4.236-3.244-2.87a1.004 1.004 0 01.567-1.752l4.305-.407 1.716-3.984a1.002 1.002 0 01.918-.605.997.997 0 01.918.605l1.716 3.984 4.305.407a.998.998 0 01.857.69zm-3.347 1.092l-2.592-.245a.998.998 0 01-.824-.601l-1.033-2.398-1.033 2.398a1.003 1.003 0 01-.824.601l-2.591.245 1.953 1.727a1.005 1.005 0 01.315.973l-.569 2.55 2.24-1.331a.998.998 0 011.019 0l2.24 1.33-.569-2.55a1.007 1.007 0 01.315-.972l1.953-1.727zm20.838-1.092a1.008 1.008 0 01-.29 1.064l-3.244 2.869.944 4.236a1.007 1.007 0 01-.388 1.031.997.997 0 01-1.097.052l-3.721-2.21-3.721 2.21a.996.996 0 01-1.29-.236 1.006 1.006 0 01-.195-.847l.944-4.236-3.244-2.87a1.004 1.004 0 01.567-1.752l4.305-.407 1.716-3.984a1.003 1.003 0 01.918-.605.997.997 0 01.918.605l1.716 3.984 4.305.407a.998.998 0 01.857.69zm-3.348 1.092l-2.59-.245a.998.998 0 01-.825-.601l-1.033-2.398-1.033 2.398a1.003 1.003 0 01-.824.601l-2.591.245 1.953 1.727a1.004 1.004 0 01.315.973l-.57 2.55 2.24-1.331a.998.998 0 011.02 0l2.24 1.33-.57-2.55a1.008 1.008 0 01.316-.972l1.953-1.727zM80.95 68.11a1.007 1.007 0 01-.29 1.064l-3.245 2.869.945 4.236a1.006 1.006 0 01-.929 1.222.997.997 0 01-.556-.14l-3.721-2.21-3.721 2.21a.996.996 0 01-1.445-.508 1.007 1.007 0 01-.04-.574l.944-4.236-3.244-2.87a1.004 1.004 0 01.567-1.752l4.305-.407 1.716-3.984a1.002 1.002 0 01.918-.605.997.997 0 01.918.605l1.716 3.984 4.305.407a.998.998 0 01.857.69zm-3.347 1.092l-2.592-.245a.998.998 0 01-.824-.601l-1.033-2.398-1.033 2.398a1.003 1.003 0 01-.824.601l-2.591.245 1.953 1.727a1.004 1.004 0 01.315.973l-.57 2.55 2.24-1.331a.998.998 0 011.02 0l2.24 1.33-.57-2.55a1.008 1.008 0 01.316-.972l1.953-1.727z" fill="url(#paint1_linear_1907_1440)"/><defs><linearGradient id="paint0_linear_1907_1440" x1="11.343" y1="129.72" x2="77.098" y2="19.191" gradientUnits="userSpaceOnUse"><stop stop-color="#EFF3F6" stop-opacity=".8"/><stop offset="1" stop-color="#EFF3F6" stop-opacity="0"/></linearGradient><linearGradient id="paint1_linear_1907_1440" x1="57.5" y1="49.502" x2="22.012" y2="94.999" gradientUnits="userSpaceOnUse"><stop stop-color="#307EBC"/><stop offset="1" stop-color="#52C788"/></linearGradient></defs></svg>