<svg width="98" height="115" fill="none" xmlns="http://www.w3.org/2000/svg"><path d="M27.138 12.827c9.452-5.545 14.177-8.318 19.32-8.866a24 24 0 015.084 0c5.143.548 9.868 3.32 19.32 8.866l5.8 3.403c9.235 5.419 13.853 8.128 16.814 12.24a24.005 24.005 0 012.476 4.324C98 37.428 98 42.782 98 53.49v8.02c0 10.708 0 16.062-2.048 20.696a24.005 24.005 0 01-2.476 4.325c-2.961 4.11-7.579 6.82-16.814 12.239l-5.8 3.403c-9.452 5.545-14.177 8.318-19.32 8.866a24 24 0 01-5.084 0c-5.143-.548-9.868-3.321-19.32-8.866l-5.8-3.403c-9.235-5.42-13.853-8.128-16.814-12.24a24.001 24.001 0 01-2.476-4.324C0 77.572 0 72.218 0 61.51v-8.02c0-10.708 0-16.062 2.048-20.696a24.001 24.001 0 012.476-4.325c2.961-4.11 7.579-6.82 16.814-12.239l5.8-3.403z" fill="url(#paint0_linear_1907_1717)"/><path d="M28.878 83a.998.998 0 01-.724-1.692L40.59 68.31a1 1 0 111.446 1.382L29.6 82.69a.992.992 0 01-.722.31zM67 49c-3.308 0-6-2.692-6-6s2.692-6 6-6 6 2.692 6 6-2.692 6-6 6zm0-10c-2.206 0-4 1.794-4 4s1.794 4 4 4 4-1.794 4-4-1.794-4-4-4zm-5 48H25a1 1 0 010-2h37a1 1 0 010 2z" fill="url(#paint1_linear_1907_1717)"/><path d="M62 87H25.866a3.96 3.96 0 01-3.628-2.316 3.961 3.961 0 01.574-4.266l14.426-17.064a1.001 1.001 0 011.528 1.292L24.34 81.71a1.955 1.955 0 00-.288 2.132A1.952 1.952 0 0025.866 85H62a1 1 0 010 2z" fill="url(#paint2_linear_1907_1717)"/><path d="M48.914 79.704a1 1 0 01-.578-1.816l9.116-6.452a2.003 2.003 0 00-.202-3.206l-6.41-4.724a.999.999 0 01-.134-1.488l7.944-8.45a.999.999 0 111.456 1.37l-7.172 7.628 5.456 4.022c1.026.664 1.704 1.846 1.766 3.126a4.017 4.017 0 01-1.498 3.322l-9.162 6.488c-.18.12-.38.18-.582.18z" fill="url(#paint3_linear_1907_1717)"/><path d="M46.166 83a.995.995 0 01-.766-.358l-.798-.954a4.976 4.976 0 01.274-6.728l4.578-4.63-6.448-4.128a6.015 6.015 0 01-2.666-3.97 6.021 6.021 0 011.084-4.658l8.584-11.57-4.302-4.204-7.52 3.24a2.984 2.984 0 01-3.942-1.568 3.006 3.006 0 011.566-3.94l9.368-4.036a2.982 2.982 0 013.284.608l5.196 3.66a21.126 21.126 0 013.614 3.246l10.294 11.664 7.158-3.92a3.004 3.004 0 014.072 1.192 3.006 3.006 0 01-1.192 4.072l-9.158 5.014a2.992 2.992 0 01-3.536-.486l-3.604-2.882a1 1 0 011.25-1.562l3.678 2.948c.314.3.654.398.98.328.096-.02.188-.054.274-.1l9.156-5.012a1.002 1.002 0 00-.962-1.754l-7.858 4.302a.998.998 0 01-1.23-.214L55.77 44.336A18.945 18.945 0 0052.5 41.4l-5.316-3.76c-.41-.384-.84-.464-1.212-.304l-9.37 4.032a1 1 0 00.792 1.836l8.132-3.504a.997.997 0 011.096.202l5.408 5.28a1 1 0 01.104 1.312l-9.106 12.272a3.96 3.96 0 00-.722 3.106 3.974 3.974 0 001.778 2.648l7.488 4.794a1.003 1.003 0 01.172 1.546l-5.448 5.51a2.986 2.986 0 00-.164 4.038l.798.954A1 1 0 0146.166 83zM24 39h-4a1 1 0 010-2h4a1 1 0 010 2zm12 20H20a1 1 0 010-2h16a1 1 0 010 2zm4-24H26a1 1 0 010-2h14a1 1 0 010 2z" fill="url(#paint4_linear_1907_1717)"/><path d="M66 87a1 1 0 100-2 1 1 0 000 2z" fill="url(#paint5_linear_1907_1717)"/><defs><linearGradient id="paint0_linear_1907_1717" x1="11.343" y1="129.72" x2="77.098" y2="19.191" gradientUnits="userSpaceOnUse"><stop stop-color="#EFF3F6" stop-opacity=".8"/><stop offset="1" stop-color="#EFF3F6" stop-opacity="0"/></linearGradient><linearGradient id="paint1_linear_1907_1717" x1="57.071" y1="52.77" x2="22.649" y2="95.791" gradientUnits="userSpaceOnUse"><stop stop-color="#307EBC"/><stop offset="1" stop-color="#52C788"/></linearGradient><linearGradient id="paint2_linear_1907_1717" x1="57.071" y1="52.77" x2="22.649" y2="95.791" gradientUnits="userSpaceOnUse"><stop stop-color="#307EBC"/><stop offset="1" stop-color="#52C788"/></linearGradient><linearGradient id="paint3_linear_1907_1717" x1="57.071" y1="52.77" x2="22.649" y2="95.791" gradientUnits="userSpaceOnUse"><stop stop-color="#307EBC"/><stop offset="1" stop-color="#52C788"/></linearGradient><linearGradient id="paint4_linear_1907_1717" x1="57.071" y1="52.77" x2="22.649" y2="95.791" gradientUnits="userSpaceOnUse"><stop stop-color="#307EBC"/><stop offset="1" stop-color="#52C788"/></linearGradient><linearGradient id="paint5_linear_1907_1717" x1="57.071" y1="52.77" x2="22.649" y2="95.791" gradientUnits="userSpaceOnUse"><stop stop-color="#307EBC"/><stop offset="1" stop-color="#52C788"/></linearGradient></defs></svg>