<svg width="98" height="115" fill="none" xmlns="http://www.w3.org/2000/svg"><path d="M27.138 12.827c9.452-5.545 14.177-8.318 19.32-8.866a24 24 0 015.084 0c5.143.548 9.868 3.32 19.32 8.866l5.8 3.403c9.235 5.419 13.853 8.128 16.814 12.24a24.005 24.005 0 012.476 4.324C98 37.428 98 42.782 98 53.49v8.02c0 10.708 0 16.062-2.048 20.696a24.005 24.005 0 01-2.476 4.325c-2.961 4.11-7.579 6.82-16.814 12.239l-5.8 3.403c-9.452 5.545-14.177 8.318-19.32 8.866a24 24 0 01-5.084 0c-5.143-.548-9.868-3.321-19.32-8.866l-5.8-3.403c-9.235-5.42-13.853-8.128-16.814-12.24a24.001 24.001 0 01-2.476-4.324C0 77.572 0 72.218 0 61.51v-8.02c0-10.708 0-16.062 2.048-20.696a24.001 24.001 0 012.476-4.325c2.961-4.11 7.579-6.82 16.814-12.239l5.8-3.403z" fill="url(#paint0_linear_1907_2549)"/><g clip-path="url(#clip0_1907_2549)"><path d="M77.79 42.124v5.23a44.606 44.606 0 01-28.402 41.573c-.25.097-.526.097-.776 0A44.608 44.608 0 0120.21 47.354v-5.178c0-2.042 1.437-3.809 3.417-4.2 3.611-.715 6.79-3.188 8.5-6.615a1.065 1.065 0 011.767-.231 1.067 1.067 0 01.142 1.184c-2.004 4.014-5.74 6.913-9.995 7.754-.984.195-1.698 1.081-1.698 2.108v5.178A42.478 42.478 0 0049 86.786c16.208-6.504 26.656-21.936 26.656-39.432v-5.23c0-1.01-.7-1.893-1.666-2.097-5.365-1.134-10.034-5.54-11.223-11.184a2.153 2.153 0 00-2.09-1.71H37.33a1.067 1.067 0 110-2.133h23.348c2.005 0 3.762 1.431 4.177 3.403.975 4.63 4.913 8.552 9.576 9.537 1.946.412 3.359 2.17 3.359 4.184zm-22.873 9.553l-7.192 7.192-2.71-2.71a1.067 1.067 0 00-1.508 1.509c3.725 3.725 3.628 3.776 4.218 3.776.283 0 .554-.112.755-.312l7.946-7.946a1.067 1.067 0 00-1.509-1.508zm6.83-7.98a1.067 1.067 0 001.386-1.62 22.664 22.664 0 01-4.653-5.48C57.51 34.995 55.755 34 53.903 34h-9.806c-1.852 0-3.606.995-4.577 2.597a22.814 22.814 0 01-7.132 7.324 5.328 5.328 0 00-2.465 4.495v1.237a29.35 29.35 0 0018.69 27.356c.249.097.526.097.775 0a29.261 29.261 0 0013.57-10.79c4.513-6.608 5.127-12.697 5.134-17.783a1.065 1.065 0 00-1.82-.756 1.067 1.067 0 00-.314.754c-.006 4.76-.576 10.453-4.76 16.581A27.131 27.131 0 0149 74.867c-10.307-4.2-16.944-14.052-16.944-25.214v-1.237c0-1.093.556-2.103 1.486-2.7a24.96 24.96 0 007.802-8.013 3.205 3.205 0 012.753-1.57h9.806c1.128 0 2.157.587 2.753 1.57a24.799 24.799 0 005.09 5.994z" fill="url(#paint1_linear_1907_2549)"/></g><defs><linearGradient id="paint0_linear_1907_2549" x1="11.343" y1="129.72" x2="77.098" y2="19.191" gradientUnits="userSpaceOnUse"><stop stop-color="#EFF3F6" stop-opacity=".8"/><stop offset="1" stop-color="#EFF3F6" stop-opacity="0"/></linearGradient><linearGradient id="paint1_linear_1907_2549" x1="56.647" y1="48.431" x2="14.833" y2="90.632" gradientUnits="userSpaceOnUse"><stop stop-color="#307EBC"/><stop offset="1" stop-color="#52C788"/></linearGradient><clipPath id="clip0_1907_2549"><path fill="#fff" transform="translate(17 25)" d="M0 0h64v64H0z"/></clipPath></defs></svg>