<svg width="98" height="115" fill="none" xmlns="http://www.w3.org/2000/svg"><path d="M27.138 12.827c9.452-5.545 14.177-8.318 19.32-8.866a24 24 0 015.084 0c5.143.548 9.868 3.32 19.32 8.866l5.8 3.403c9.235 5.419 13.853 8.128 16.814 12.24a24.005 24.005 0 012.476 4.324C98 37.428 98 42.782 98 53.49v8.02c0 10.708 0 16.062-2.048 20.696a24.005 24.005 0 01-2.476 4.325c-2.961 4.11-7.579 6.82-16.814 12.239l-5.8 3.403c-9.452 5.545-14.177 8.318-19.32 8.866a24 24 0 01-5.084 0c-5.143-.548-9.868-3.321-19.32-8.866l-5.8-3.403c-9.235-5.42-13.853-8.128-16.814-12.24a24.001 24.001 0 01-2.476-4.324C0 77.572 0 72.218 0 61.51v-8.02c0-10.708 0-16.062 2.048-20.696a24.001 24.001 0 012.476-4.325c2.961-4.11 7.579-6.82 16.814-12.239l5.8-3.403z" fill="url(#paint0_linear_1907_2688)"/><path d="M56 37c-2.756 0-5-2.242-5-5s2.244-5 5-5 5 2.242 5 5-2.244 5-5 5zm0-8c-1.654 0-3 1.346-3 3s1.346 3 3 3 3-1.346 3-3-1.346-3-3-3zm-16 8c-2.756 0-5-2.242-5-5s2.244-5 5-5 5 2.242 5 5-2.244 5-5 5zm0-8c-1.654 0-3 1.346-3 3s1.346 3 3 3 3-1.346 3-3-1.346-3-3-3zm30 58a1 1 0 01-1-1V74a1 1 0 012 0 1 1 0 002 0V60c0-2.25-1.846-5-4-5h-7a1 1 0 010-2h7c3.378 0 6 3.764 6 7v14a3.005 3.005 0 01-4 2.828V86a1 1 0 01-1 1zM58 45c0-3.308 2.692-6 6-6s6 2.692 6 6-2.692 6-6 6-6-2.692-6-6zm2 0a4 4 0 108-.001A4 4 0 0060 45z" fill="url(#paint1_linear_1907_2688)"/><path d="M70 75a1 1 0 001-1V62a1 1 0 00-2 0v12a1 1 0 001 1zm-6 12a1 1 0 001-1v-8a1 1 0 00-2 0v8a1 1 0 001 1zm-38 0a1 1 0 01-1-1v-9.172A3.004 3.004 0 0121 74V60c0-3.236 2.622-7 6-7h7a1 1 0 010 2h-7c-2.154 0-4 2.75-4 5v14a1 1 0 002 0 1 1 0 012 0v12a1 1 0 01-1 1zm6-36c-3.308 0-6-2.692-6-6s2.692-6 6-6 6 2.692 6 6-2.692 6-6 6zm0-10a4 4 0 10-.177 7.998A4 4 0 0032 41z" fill="url(#paint2_linear_1907_2688)"/><path d="M26 75a1 1 0 01-1-1V62a1 1 0 012 0v12a1 1 0 01-1 1zm6 12a1 1 0 01-1-1v-8a1 1 0 012 0v8a1 1 0 01-1 1zm22 0a1 1 0 01-1-1V64a1 1 0 011-1 3.01 3.01 0 003-3v-2c0-2.758-2.244-5-5-5h-9c-2.206 0-4 1.794-4 4v3c0 1.654 1.346 3 3 3a1 1 0 011 1v22a1 1 0 01-2 0V64.9a5.008 5.008 0 01-4-4.9v-3c0-3.308 2.692-6 6-6h9c3.86 0 7 3.14 7 7v2a4.982 4.982 0 01-2.082 4.057 5.019 5.019 0 01-1.918.841V86a1 1 0 01-1 1zm-6-38c-3.308 0-6-2.692-6-6s2.692-6 6-6 6 2.692 6 6-2.692 6-6 6zm0-10a4 4 0 10-.177 7.998A4 4 0 0048 39z" fill="url(#paint3_linear_1907_2688)"/><path d="M54 62a1 1 0 01-1-1v-.638a.99.99 0 00-.354-.764.984.984 0 00-.808-.222l-7.344 1.222a3.012 3.012 0 01-3.216-1.697A2.989 2.989 0 0141 57.638a1 1 0 012 0c0 .298.126.57.354.764.228.192.52.276.812.222l7.342-1.222A2.995 2.995 0 0155 60.362V61a1 1 0 01-1 1zm-6 25a1 1 0 01-1-1V73a1 1 0 012 0v13a1 1 0 01-1 1zm6-22h-8a1 1 0 010-2h8a1 1 0 010 2z" fill="url(#paint4_linear_1907_2688)"/><defs><linearGradient id="paint0_linear_1907_2688" x1="11.343" y1="129.72" x2="77.098" y2="19.191" gradientUnits="userSpaceOnUse"><stop stop-color="#EFF3F6" stop-opacity=".8"/><stop offset="1" stop-color="#EFF3F6" stop-opacity="0"/></linearGradient><linearGradient id="paint1_linear_1907_2688" x1="55.172" y1="48.967" x2="15.971" y2="88.544" gradientUnits="userSpaceOnUse"><stop stop-color="#307EBC"/><stop offset="1" stop-color="#52C788"/></linearGradient><linearGradient id="paint2_linear_1907_2688" x1="55.172" y1="48.967" x2="15.971" y2="88.544" gradientUnits="userSpaceOnUse"><stop stop-color="#307EBC"/><stop offset="1" stop-color="#52C788"/></linearGradient><linearGradient id="paint3_linear_1907_2688" x1="55.172" y1="48.967" x2="15.971" y2="88.544" gradientUnits="userSpaceOnUse"><stop stop-color="#307EBC"/><stop offset="1" stop-color="#52C788"/></linearGradient><linearGradient id="paint4_linear_1907_2688" x1="55.172" y1="48.967" x2="15.971" y2="88.544" gradientUnits="userSpaceOnUse"><stop stop-color="#307EBC"/><stop offset="1" stop-color="#52C788"/></linearGradient></defs></svg>