<svg width="370" height="371" viewBox="0 0 370 371" fill="none" xmlns="http://www.w3.org/2000/svg">
<path d="M185.262 242.184C169.845 238.784 123.369 187.725 120.758 174.721C118.147 161.718 137.42 154.204 137.293 145.283C137.167 136.361 107.411 87.2716 97.5017 84.6292C87.5928 81.9869 55.9563 110.127 55.4412 131.284C54.9726 150.53 81.0918 199.409 118.161 239.355C148.448 271.993 202.095 308.764 224.435 309.308C246.776 309.852 276.783 277.996 274.929 269.375C273.076 260.755 228.481 226.841 218.538 225.57C208.596 224.299 194.333 244.185 185.262 242.184Z" stroke="#FFCB22" stroke-width="10"/>
<path d="M326.706 168.459C326.861 151.564 323.686 134.804 317.363 119.136C311.041 103.468 301.694 89.1991 289.857 77.1433C278.02 65.0876 263.924 55.4815 248.374 48.8733C232.825 42.2652 216.126 38.7844 199.231 38.6299" stroke="#FFCB22" stroke-width="10" stroke-linecap="round" stroke-linejoin="round"/>
<path d="M289.093 168.114C289.203 156.159 286.956 144.299 282.482 133.212C278.008 122.124 271.394 112.027 263.017 103.496C254.641 94.9648 244.666 88.1671 233.663 83.4909C222.659 78.8147 210.842 76.3516 198.887 76.2422" stroke="#FFCB22" stroke-width="10" stroke-linecap="round" stroke-linejoin="round"/>
<path d="M249.226 167.749C249.287 161.029 248.025 154.363 245.51 148.131C242.995 141.899 239.277 136.223 234.569 131.428C229.861 126.633 224.254 122.812 218.069 120.183C211.884 117.555 205.242 116.17 198.522 116.109" stroke="#FFCB22" stroke-width="10" stroke-linecap="round" stroke-linejoin="round"/>
</svg>
