<svg width="26" height="25" viewBox="0 0 26 25" fill="none" xmlns="http://www.w3.org/2000/svg">
<g clip-path="url(#clip0_973_64)">
<path d="M14.6804 20.0945L12.9568 21.5408C12.7973 21.6757 12.6129 21.7776 12.4155 21.8401C12.2181 21.9025 12.012 21.9242 11.8104 21.9036C11.6088 21.883 11.4161 21.8206 11.2447 21.7205C11.0734 21.6204 10.927 21.4846 10.8152 21.3221C9.60619 19.4911 8.8645 17.3804 8.64966 15.1593C8.43166 13.1081 8.67589 11.0089 9.36501 9.01104C10.0944 6.83633 11.322 4.83373 12.9484 3.16549C13.0959 3.01861 13.271 2.90208 13.4625 2.82332C13.6541 2.74455 13.8579 2.70527 14.0609 2.70799C14.264 2.7107 14.4618 2.75535 14.6419 2.83908C14.822 2.92281 14.9804 3.0438 15.107 3.19433L16.4729 4.82218C16.6966 5.08321 16.8121 5.42135 16.7978 5.77358C16.7835 6.1258 16.6405 6.46808 16.3953 6.7366C15.9014 7.26815 15.4667 7.85002 15.0996 8.47111C14.9552 8.71666 14.745 8.91999 14.4938 9.057C14.2426 9.19401 13.9611 9.25896 13.6824 9.24414L12.3745 9.16728C11.5843 11.1467 11.3372 13.2708 11.6592 15.3155L12.9671 15.3924C13.2453 15.4103 13.5081 15.5072 13.7242 15.6717C13.9403 15.8362 14.1007 16.0613 14.1863 16.3204C14.4049 16.9759 14.6992 17.6006 15.0636 18.1826C15.2454 18.4792 15.3068 18.8379 15.2361 19.1904C15.1655 19.5429 14.9677 19.8647 14.6804 20.0945Z" stroke="#EEBB07" stroke-width="2.5" stroke-linecap="round" stroke-linejoin="round"/>
</g>
<defs>
<clipPath id="clip0_973_64">
<rect width="17" height="18" fill="white" transform="translate(14.3848) rotate(50)"/>
</clipPath>
</defs>
</svg>
