<svg width="20" height="20" fill="none" xmlns="http://www.w3.org/2000/svg"><path d="M10.833 7.5h-5m12.5 1.642v1.716a.856.856 0 01-.833.85h-1.633c-.9 0-1.725-.658-1.8-1.558-.05-.525.15-1.017.5-1.358a1.66 1.66 0 011.2-.5H17.5a.856.856 0 01.833.85z" stroke="#FFDB63" stroke-width="1.5" stroke-linecap="round" stroke-linejoin="round"/><path d="M14.567 8.792c-.35.341-.55.833-.5 1.358.075.9.9 1.558 1.8 1.558H17.5v1.209c0 2.5-1.667 4.166-4.167 4.166h-7.5c-2.5 0-4.166-1.666-4.166-4.166V7.083c0-2.266 1.366-3.85 3.491-4.116.217-.034.442-.05.675-.05h7.5c.217 0 .425.008.625.041 2.15.25 3.542 1.842 3.542 4.125v1.209h-1.733a1.66 1.66 0 00-1.2.5z" stroke="#FFDB63" stroke-width="1.5" stroke-linecap="round" stroke-linejoin="round"/></svg>