<svg width="26" height="23" viewBox="0 0 26 23" fill="none" xmlns="http://www.w3.org/2000/svg">
<path fill-rule="evenodd" clip-rule="evenodd" d="M26 11.5C26 17.8513 20.1797 23 13 23C5.8203 23 0 17.8513 0 11.5C0 5.14873 5.8203 0 13 0C20.1797 0 26 5.14873 26 11.5ZM13.4659 8.48981C12.2014 8.95505 9.67431 9.91798 5.88455 11.3786C5.26915 11.5951 4.94678 11.8069 4.91743 12.014C4.86783 12.3639 5.36327 12.5017 6.03792 12.6894C6.1297 12.7149 6.22478 12.7414 6.32227 12.7694C6.98602 12.9603 7.87889 13.1836 8.34306 13.1924C8.7641 13.2005 9.23404 13.0469 9.75286 12.7318C13.2938 10.6174 15.1216 9.54865 15.2363 9.52561C15.3173 9.50936 15.4295 9.48892 15.5055 9.54869C15.5815 9.60845 15.574 9.72164 15.566 9.752C15.5169 9.93709 13.5721 11.5365 12.5657 12.3642C12.252 12.6222 12.0294 12.8053 11.9839 12.8471C11.882 12.9407 11.7781 13.0293 11.6783 13.1144C11.0617 13.6403 10.5992 14.0346 11.7039 14.6786C12.2348 14.9881 12.6596 15.244 13.0834 15.4993C13.5462 15.7781 14.0078 16.0562 14.6051 16.4025C14.7572 16.4908 14.9026 16.5824 15.0441 16.6717C15.5827 17.0114 16.0666 17.3165 16.6645 17.2679C17.0118 17.2396 17.3707 16.9506 17.5529 16.0888C17.9836 14.0522 18.8301 9.63935 19.0257 7.82093C19.0429 7.66162 19.0213 7.45772 19.004 7.36822C18.9867 7.27871 18.9505 7.15119 18.819 7.05678C18.6632 6.94498 18.4228 6.9214 18.3152 6.92308C17.8263 6.9307 17.0761 7.16145 13.4659 8.48981Z" fill="#FFDA56"/>
</svg>
