<svg width="27" height="23" viewBox="0 0 27 23" fill="none" xmlns="http://www.w3.org/2000/svg">
<g clip-path="url(#clip0_891_177)">
<path fill-rule="evenodd" clip-rule="evenodd" d="M1.89795 1.61677C0 3.23354 0 5.83568 0 11.04V11.96C0 17.1643 0 19.7664 1.89795 21.3832C3.7959 23 6.85058 23 12.96 23H14.04C20.1494 23 23.2041 23 25.1021 21.3832C27 19.7664 27 17.1643 27 11.96V11.04C27 5.83568 27 3.23354 25.1021 1.61677C23.2041 0 20.1494 0 14.04 0H12.96C6.85058 0 3.7959 0 1.89795 1.61677ZM4.55632 6.99588C4.70257 12.9759 8.21256 16.5696 14.3663 16.5696H14.7151V13.1484C16.9764 13.34 18.6862 14.7488 19.3725 16.5696H22.5676C21.6901 13.848 19.3837 12.3434 17.9437 11.7684C19.3837 11.0592 21.4087 9.33421 21.8924 6.99588H18.9899C18.3599 8.89338 16.4926 10.6184 14.7151 10.7813V6.99588H11.8125V13.6275C10.0125 13.2442 7.74006 11.385 7.63881 6.99588H4.55632Z" fill="#FFDA56"/>
</g>
<defs>
<clipPath id="clip0_891_177">
<rect width="27" height="23" fill="white"/>
</clipPath>
</defs>
</svg>
