<svg width="28" height="23" viewBox="0 0 28 23" fill="none" xmlns="http://www.w3.org/2000/svg">
<path d="M0 23L1.96816 17.0938C0.753665 15.365 0.1155 13.4052 0.116666 11.3955C0.120166 5.11271 6.34432 0 13.9918 0C17.703 0.000958333 21.1866 1.18833 23.8069 3.34267C26.4261 5.497 27.8681 8.3605 27.8669 11.4061C27.8634 17.6899 21.6393 22.8026 13.9918 22.8026C11.6701 22.8016 9.38231 22.3234 7.35582 21.4149L0 23ZM7.69648 19.3516C9.65181 20.3052 11.5185 20.8763 13.9871 20.8773C20.3431 20.8773 25.5208 16.628 25.5243 11.4042C25.5266 6.16975 20.3735 1.92625 13.9965 1.92433C7.63582 1.92433 2.46166 6.17358 2.45933 11.3965C2.45816 13.5288 3.21883 15.1254 4.49632 16.7957L3.33083 20.2917L7.69648 19.3516ZM20.9813 14.1153C20.895 13.9965 20.664 13.9255 20.3163 13.7828C19.9698 13.64 18.2653 12.9509 17.9468 12.856C17.6295 12.7612 17.3985 12.7133 17.1663 12.9988C16.9353 13.2835 16.2703 13.9255 16.0685 14.1153C15.8666 14.305 15.6636 14.329 15.3171 14.1862C14.9706 14.0434 13.853 13.7435 12.5288 12.7727C11.4986 12.0175 10.8021 11.085 10.6003 10.7995C10.3985 10.5148 10.5793 10.3605 10.752 10.2187C10.9083 10.0912 11.0985 9.88617 11.2723 9.71942C11.4485 9.55458 11.5056 9.43575 11.6223 9.24504C11.7378 9.05529 11.6806 8.88854 11.5931 8.74575C11.5056 8.60392 10.8126 7.20187 10.5245 6.63167C10.2421 6.07679 9.95631 6.15154 9.74398 6.14292L9.07898 6.13333C8.84798 6.13333 8.47231 6.20425 8.15498 6.48983C7.83765 6.77542 6.94165 7.4635 6.94165 8.86554C6.94165 10.2676 8.18415 11.6217 8.35681 11.8115C8.53065 12.0012 10.801 14.8781 14.2788 16.1115C15.106 16.4048 15.7523 16.5801 16.2551 16.7114C17.0858 16.928 17.8418 16.8973 18.4391 16.8245C19.1053 16.743 20.4901 16.1355 20.7795 15.4704C21.0688 14.8043 21.0688 14.2341 20.9813 14.1153Z" fill="#FFDA56"/>
</svg>
