<svg width="28" height="27" viewBox="0 0 28 27" fill="none" xmlns="http://www.w3.org/2000/svg">
<path d="M27.7211 8.10006C27.7211 8.10006 27.4477 6.23853 26.6055 5.42115C25.5391 4.34537 24.3469 4.34009 23.8 4.27681C19.8844 4.00259 14.0055 4.00259 14.0055 4.00259H13.9945C13.9945 4.00259 8.11562 4.00259 4.2 4.27681C3.65313 4.34009 2.46094 4.34537 1.39453 5.42115C0.552344 6.23853 0.284375 8.10006 0.284375 8.10006C0.284375 8.10006 0 10.2885 0 12.4717V14.5178C0 16.701 0.278906 18.8895 0.278906 18.8895C0.278906 18.8895 0.552344 20.751 1.38906 21.5684C2.45547 22.6442 3.85547 22.6073 4.47891 22.7233C6.72109 22.929 14 22.9922 14 22.9922C14 22.9922 19.8844 22.9817 23.8 22.7128C24.3469 22.6495 25.5391 22.6442 26.6055 21.5684C27.4477 20.751 27.7211 18.8895 27.7211 18.8895C27.7211 18.8895 28 16.7063 28 14.5178V12.4717C28 10.2885 27.7211 8.10006 27.7211 8.10006ZM11.107 17.0016V9.41314L18.6703 13.2206L11.107 17.0016Z" fill="#FFDA56"/>
</svg>
